<?xml version="1.0" encoding="UTF-8"?>
<svg width="41px" height="56px" viewBox="0 0 41 56" version="1.1" xmlns="http://www.w3.org/2000/svg" xmlns:xlink="http://www.w3.org/1999/xlink">
    <!-- Generator: Sketch 43.1 (39012) - http://www.bohemiancoding.com/sketch -->
    <title>Devanagari</title>
    <desc>Created with Sketch.</desc>
    <defs></defs>
    <g id="Page-1" stroke="none" stroke-width="1" fill="none" fill-rule="evenodd">
        <g id="Devanagari" fill="#000000">
            <path d="M18.272,29.776 L25.184,29.776 C25.4720014,29.776 25.616,29.6480013 25.616,29.392 L25.616,23.68 C25.616,23.4239987 25.4720014,23.296 25.184,23.296 L8.192,23.296 C7.90399856,23.296 7.76,23.1680013 7.76,22.912 L7.76,22.48 C7.76,22.2239987 7.90399856,22.096 8.192,22.096 L31.808,22.096 C32.0960014,22.096 32.24,22.2239987 32.24,22.48 L32.24,22.912 C32.24,23.1680013 32.0960014,23.296 31.808,23.296 L27.44,23.296 C27.1519986,23.296 27.008,23.4239987 27.008,23.68 L27.008,30.256 C27.008,30.8320029 26.7520026,31.12 26.24,31.12 L18.272,31.12 C16.671992,31.12 15.4400043,31.5839954 14.576,32.512 C13.7119957,33.4400046 13.28,34.7199918 13.28,36.352 L13.28,40.96 C13.28,42.5920082 13.7119957,43.8719954 14.576,44.8 C15.4400043,45.7280046 16.671992,46.192 18.272,46.192 L22.016,46.192 C25.024015,46.192 26.528,44.7680142 26.528,41.92 L26.528,40.48 C26.528,40.1919986 26.6559987,40.048 26.912,40.048 L27.488,40.048 C27.7440013,40.048 27.872,40.1919986 27.872,40.48 L27.872,51.568 C27.872,51.8560014 27.7440013,52 27.488,52 L26.912,52 C26.6559987,52 26.528,51.8560014 26.528,51.568 L26.528,45.808 L26.336,45.808 C25.5999963,46.9600058 24.1600107,47.536 22.016,47.536 L18.272,47.536 C16.3199902,47.536 14.7600058,46.9440059 13.592,45.76 C12.4239942,44.5759941 11.84,42.9920099 11.84,41.008 L11.84,36.304 C11.84,34.3199901 12.4239942,32.7360059 13.592,31.552 C14.7600058,30.3679941 16.3199902,29.776 18.272,29.776 Z" id="द"></path>
            <g id="Pen" transform="translate(20.013289, 12.013289) scale(-1, -1) rotate(9.000000) translate(-20.013289, -12.013289) translate(9.513289, 1.513289)">
                <path d="M19.0127855,6.89939899 C19.1865843,4.27260078 20.4799711,0.814793888 20.4920966,0.78236428 C20.5729333,0.571571832 20.5203894,0.332403477 20.3627579,0.170255439 C20.2051264,0.00810740187 19.9666582,-0.0405370093 19.752441,0.0405370093 C19.7160645,0.0526981121 16.2845478,1.35393611 13.6694814,1.52824525 C13.4390969,1.54446006 13.241047,1.69850069 13.1642522,1.91740054 L11.9638276,5.46438886 C10.1409606,6.48186779 7.88965928,8.28576471 5.73940378,10.4463873 C-0.173798847,16.3931666 -0.428434367,19.6645032 0.278886522,20.3739009 C0.836659565,20.9333116 4.23584166,20.8279154 10.1490443,14.8811361 C12.2992998,12.7164598 14.0898321,10.450441 15.1043323,8.61816819 L18.6328531,7.40611161 C18.8470703,7.33314499 19.00066,7.13045994 19.0127855,6.89939899 Z M1.08725325,19.559107 C0.998332911,19.4699256 1.18425726,16.6890867 6.54777051,11.2652349 C8.55656184,9.23027703 10.6583153,7.54393744 12.3639691,6.56294181 L14.0130373,8.22090549 C13.0349135,9.93156729 11.3535107,12.0394918 9.33663573,14.0663422 C3.95695514,19.478033 1.11554609,19.5834292 1.08725325,19.559107 Z M14.8901152,7.47097082 L13.1036247,5.67518131 L14.1342923,2.64706671 C15.8844062,2.47275757 17.8325701,1.90523944 19.0289528,1.51203045 C18.636895,2.71597963 18.0750801,4.67391718 17.9012812,6.43727708 L14.8901152,7.47097082 Z" id="Shape"></path>
                <path d="M15.5368085,4.07802314 C15.3145077,4.30503039 15.3145077,4.66986348 15.5368085,4.89281703 L15.6701891,5.02658916 C15.9167409,5.27791862 16.2805059,5.2252205 16.4825976,5.02658916 C16.7048985,4.79958191 16.7048985,4.43474882 16.4825976,4.21179527 L16.3492171,4.07802314 C16.1228744,3.85101589 15.7591094,3.85101589 15.5368085,4.07802314 Z" id="Shape"></path>
            </g>
        </g>
    </g>
</svg>